<?xml version="1.0" encoding="UTF-8" standalone="no"?>
<svg
   xmlns:dc="http://purl.org/dc/elements/1.1/"
   xmlns:cc="http://creativecommons.org/ns#"
   xmlns:rdf="http://www.w3.org/1999/02/22-rdf-syntax-ns#"
   xmlns:svg="http://www.w3.org/2000/svg"
   xmlns="http://www.w3.org/2000/svg"
   viewBox="0 0 334.66666 110.66667"
   height="110.66667"
   width="334.66666"
   id="svg3680"
   version="1.1">
  <metadata
     id="metadata3686">
    <rdf:RDF>
      <cc:Work
         rdf:about="">
        <dc:format>image/svg+xml</dc:format>
        <dc:type
           rdf:resource="http://purl.org/dc/dcmitype/StillImage" />
        <dc:title></dc:title>
      </cc:Work>
    </rdf:RDF>
  </metadata>
  <defs
     id="defs3684" />
  <g
     id="flowRoot3690"
     style="font-style:normal;font-weight:normal;font-size:40px;line-height:1.25;font-family:sans-serif;letter-spacing:0px;word-spacing:0px;fill:#eb4632;fill-opacity:1;stroke:none"
     transform="matrix(3.3329863,0,0,3.3329863,116.87469,-192.95549)"
     aria-label="EAZY-E">
    <path
       id="path3698"
       style="font-style:normal;font-variant:normal;font-weight:normal;font-stretch:normal;font-family:Mistral;-inkscape-font-specification:Mistral;fill:#eb4632;fill-opacity:1"
       d="m -16.763672,82.17876 0.742188,1.796875 q -0.214844,0.195312 -0.527344,0.429687 -0.292969,0.214844 -0.703125,0.46875 -0.410156,0.136719 -0.996094,0.390625 -0.566406,0.253906 -1.308594,0.585938 -0.566406,0.351562 -0.9375,0.527343 -0.351562,0.175782 -0.488281,0.175782 -0.253906,0 -0.9375,0.214843 -0.664062,0.214844 -1.757812,0.644532 -0.585938,0.214843 -1.25,0.449218 -0.644532,0.214844 -1.347657,0.390625 l -1.210937,-0.253906 -0.742188,0.332031 q -0.371093,0 -0.761718,-0.01953 -0.371094,0 -0.722657,-0.03906 -0.566406,-0.01953 -0.859375,-0.15625 -0.273437,-0.136719 -0.273437,-0.390625 l 0.117187,-0.742188 -0.117187,-0.136719 q -0.664063,0 -0.898438,-0.175781 -0.214843,-0.175781 -0.214843,-0.820312 0,-0.292969 0.01953,-0.976563 0.03906,-0.683594 0.09766,-1.777344 0,-0.09766 0.117188,-0.410156 0.136718,-0.3125 0.136718,-0.449219 -0.09766,-0.195312 -0.117187,-0.3125 -0.01953,-0.117187 -0.01953,-0.214843 0.03906,-0.761719 0.15625,-1.875 0.136718,-1.113282 0.332031,-2.636719 0.234375,-0.917969 0.390625,-2.070313 -0.03906,-0.859375 -0.07813,-1.757812 0.722656,-3.242188 1.484375,-6.523438 0.117187,-0.585937 0.429687,-1.113281 0.332032,-0.527344 0.78125,-1.015625 0.195313,-0.136719 0.253907,-0.214844 0.09766,-0.175781 0.253906,-0.429687 0.15625,-0.273438 0.371094,-0.605469 0.117187,-0.07813 0.371093,-0.234375 0.273438,-0.15625 0.722657,-0.429687 0.195312,-0.15625 0.449218,-0.371094 0.253907,-0.214844 0.585938,-0.507813 0.742187,-0.449218 1.367187,-0.9375 0.644532,-0.507812 1.601563,-0.625 0.449219,-0.01953 0.898437,-0.03906 0.449219,-0.03906 0.859375,-0.07813 0.390625,-0.07813 0.683594,-0.09766 0.195313,-0.03906 0.332031,-0.07813 0.15625,-0.03906 0.273438,-0.03906 0.117187,0 0.3125,0.03906 0.214844,0.01953 0.566406,0.07813 0.273438,0.01953 0.46875,0.01953 0.195313,0 0.371094,-0.01953 0.78125,0.234375 1.152344,0.683593 0.371093,0.449219 0.371093,1.074219 0,1.347656 -0.273437,2.011719 -0.253906,0.644531 -0.820313,0.644531 -0.429687,0 -0.976562,-0.429687 -0.546875,-0.449219 -2.949219,-0.449219 -0.996094,0.195312 -1.972656,0.390625 -0.09766,0.15625 -0.234375,0.234375 -0.117188,0.07813 -0.214844,0.117187 l -0.683594,-0.253906 q -0.3125,0.117188 -0.703125,0.644531 -0.390625,0.527344 -0.820312,1.445313 -0.09766,0.195312 -0.15625,0.488281 -0.03906,0.292969 -0.03906,0.683594 -0.351562,1.40625 -0.703125,2.714844 -0.332031,1.40625 -0.546875,2.128906 -0.195312,0.722656 -0.234375,0.878906 -0.05859,0.195313 -0.09766,0.371094 -0.03906,0.175781 -0.03906,0.351562 0,0.253907 0.09766,0.390625 0.09766,0.136719 0.292969,0.136719 0.175781,0 0.839843,-0.644531 0.683594,-0.644531 1.015625,-0.722656 0.410157,-0.117188 0.820313,-0.253907 0.429687,-0.136718 0.878906,-0.332031 0.175781,-0.05859 0.917969,-0.15625 0.761719,-0.09766 2.109375,-0.234375 l 0.546875,0.15625 1.035156,-0.195312 0.546875,0.253906 q 0.195313,0.195312 0.351563,0.488281 0.175781,0.273438 0.3125,0.605469 0,1.171875 -0.253907,1.777344 -0.253906,0.605468 -0.761718,0.605468 l -1.074219,-0.429687 q -1.328125,0.136719 -2.636719,0.273437 -1.289062,0.117188 -2.636719,0.234375 -1.640625,0.332032 -2.519531,1.074219 -0.878906,0.742188 -0.976562,1.953125 -0.01953,0.253906 -0.136719,0.78125 -0.117188,0.527344 -0.273438,1.308594 l 0.136719,0.585937 q -0.175781,0.839844 -0.273437,1.582032 -0.09766,0.742187 -0.09766,1.328125 0,0.195312 0.05859,0.292968 0.05859,0.07813 0.136719,0.03906 0.9375,-0.07813 1.503906,-0.117188 0.566406,-0.03906 0.800781,-0.01953 0.507813,0.03906 1.035157,0.07813 l 1.230468,-0.09766 q 0.195313,-0.03906 0.839844,-0.3125 0.664063,-0.273438 1.191406,-0.273438 0.566407,0 1.132813,-0.117187 0.585937,-0.117188 1.113281,-0.3125 0.527344,-0.195313 1.035156,-0.390625 0.527344,-0.214844 1.054688,-0.410156 0.195312,-0.05859 0.507812,-0.214844 0.332032,-0.15625 0.761719,-0.410156 z" />
    <path
       id="path3700"
       style="font-style:normal;font-variant:normal;font-weight:normal;font-stretch:normal;font-family:Mistral;-inkscape-font-specification:Mistral;fill:#eb4632;fill-opacity:1"
       d="m -14.943955,80.381885 q -0.05859,-0.214844 -0.05859,-0.351563 -0.01953,-0.136719 -0.01953,-0.234375 0,-0.644531 0.15625,-1.09375 0.15625,-0.46875 0.46875,-0.78125 0.07813,-0.07813 0.390625,-0.234375 0.332032,-0.15625 0.859375,-0.371094 0.371094,-0.175781 0.585938,-0.410156 0.234375,-0.253906 0.253906,-0.605469 0.05859,-0.273437 0.234375,-0.625 0.175781,-0.351562 0.410156,-0.761718 0.07813,-0.117188 0.46875,-1.347657 0.390625,-1.230468 1.09375,-3.613281 0.1953135,-0.722656 0.3906255,-1.25 0.195313,-0.527344 0.3320325,-0.898437 0.6250005,-1.660157 1.0156255,-2.167969 0.4101559,-0.527344 0.6054684,-0.859375 v -0.09766 l -0.6054684,-0.957032 0.7617184,-0.878906 0.9765625,-0.195312 q 0.2929687,-0.03906 0.5273437,-0.546875 0.2539063,-0.507813 0.859375,-1.113282 0.1367188,-0.03906 0.4296875,-0.234375 0.3125,-0.214843 0.78125,-0.585937 0.4101563,-0.332031 0.703125,-0.488281 0.2929688,-0.15625 0.4492188,-0.15625 0.5273437,0 0.7617187,0.214843 0.234375,0.214844 0.234375,0.566407 0,0.429687 -0.4492187,1.25 -0.4492188,0.820312 -0.4492188,1.25 0,0.195312 0.078125,0.332031 0.097656,0.117187 0.2148438,0.15625 l 2.34374994,1.269531 q 0.1953125,0.07813 0.35156247,0.625 0.15625,0.527344 0.25390622,1.464844 0.1171875,0.78125 0.1757813,1.308594 0.078125,0.507812 0.078125,0.820312 -0.1367188,0.839844 -0.2734375,1.699219 0.1953125,1.09375 0.4296875,2.304687 -0.1171875,1.152344 -0.2539063,2.34375 0,0.117188 0.039063,0.214844 0.058594,0.07813 0.15625,0.09766 0.33203127,0.01953 0.48828127,0.175782 0.1757812,0.15625 0.1757812,0.429687 0,0.351563 -0.1171875,0.566406 -0.097656,0.195313 -0.2929687,0.3125 -0.25390627,0.15625 -0.41015627,0.273438 -0.1367187,0.117187 -0.1953125,0.195312 l 0.2539063,1.210938 -0.35156252,2.773437 q 0,0.351563 -0.058594,0.898438 -0.058594,0.546875 -0.17578117,1.269531 -0.1953125,0.527344 -0.2929688,0.878906 -0.097656,0.351563 -0.097656,0.46875 0.097656,0.332032 0.1757812,0.703125 -0.1171875,0.527344 -0.2539062,1.054688 -0.11718747,0.527344 -0.23437497,1.035156 -0.2148438,0.683594 -0.56640627,0.996094 -0.3515625,0.332031 -0.8203125,0.332031 -0.2539062,0 -0.390625,-0.234375 -0.1171875,-0.214844 -0.1171875,-0.664062 0,-0.195313 0.058594,-0.566407 0.078125,-0.371093 0.078125,-0.566406 0,-0.136719 -0.039063,-0.371094 -0.039063,-0.234375 -0.039063,-0.410156 0,-0.546875 0.097656,-1.738281 0.1171875,-1.210938 0.1171875,-1.816406 -0.097656,-0.332032 -0.1953125,-0.683594 0.058594,-0.371094 0.078125,-0.742188 0.019531,-0.390625 -0.019531,-0.722656 l 0.2929687,-0.527344 -0.2539062,-1.816406 -0.1367188,-0.05859 q -0.1171875,0 -0.3515625,0.09766 -0.2148437,0.07813 -0.546875,0.273437 -0.234375,0.07813 -0.7421875,0.175781 -0.4882812,0.07813 -1.3085937,0.09766 -0.3515625,0.175781 -0.6640625,0.3125 -0.4492188,0.09766 -1.1328125,0.351562 -0.6835938,0.234375 -1.5820306,0.585938 -0.5273445,0.253906 -0.976564,0.410156 -0.4296875,0.136719 -0.7226565,0.136719 -0.234375,0 -0.390625,0.175781 -0.15625,0.175781 -0.253906,0.507812 -0.05859,0.3125 -0.292969,0.859375 -0.214844,0.546875 -0.585938,1.367188 -0.07813,0.214844 -0.214843,0.664062 -0.136719,0.449219 -0.3125,1.113282 -0.117188,0.253906 -0.273438,0.644531 -0.15625,0.371094 -0.351562,0.878906 0,0.234375 -0.05859,0.585938 -0.03906,0.332031 -0.136719,0.78125 -0.09766,0.273437 -0.273437,0.683593 -0.15625,0.429688 -0.410157,0.9375 -0.15625,0.3125 -0.449218,0.449219 -0.292969,0.15625 -0.761719,0.15625 -0.332031,0 -0.507813,-0.234375 -0.195312,-0.214844 -0.195312,-0.683594 0,-0.507812 0.117187,-1.171875 0.117188,-0.644531 0.371094,-1.425781 0.273438,-1.035156 0.46875,-1.679687 0.195313,-0.644532 0.214844,-0.957032 0.05859,-0.136718 0.175781,-0.488281 0.117188,-0.351562 0.273438,-0.859375 0.175781,-0.488281 0.332031,-1.113281 l -0.09766,-0.15625 -0.625,0.09766 q -0.214844,-0.01953 -0.3125,-0.175781 -0.09766,-0.15625 -0.09766,-0.410156 0,-0.136719 0.03906,-0.292969 0.03906,-0.175781 0.117187,-0.410156 z m 7.0898456,-3.59375 q 0.4492188,0 1.328125,-0.214844 0.8789063,-0.214844 1.328125,-0.214844 0.2734375,0.05859 0.546875,0.09766 0.4882813,-0.09766 0.9570313,-0.214843 0.46875,-0.136719 0.9570312,-0.234375 0.1953125,-0.03906 0.2929688,-0.136719 0.097656,-0.117188 0.097656,-0.292969 -0.039063,-0.585937 -0.039063,-0.800781 0,-0.371094 0.039063,-0.820313 0.058594,-0.46875 0.15625,-0.957031 l -0.234375,-0.878906 0.078125,-0.800781 q -0.078125,-0.429688 -0.1367187,-0.800782 -0.039063,-0.390625 0,-0.644531 -0.039063,-0.07813 -0.1367188,-0.253906 -0.097656,-0.175781 -0.2148437,-0.371094 -0.1953125,-0.332031 -0.4101563,-0.625 -0.1953125,-0.3125 -0.390625,-0.625 -0.2734375,-0.371094 -0.5859375,-0.546875 -0.3125,-0.175781 -0.6445312,-0.175781 -0.390625,0 -0.8007813,0.625 -0.4101562,0.625 -0.7617187,1.894531 -0.058594,0.15625 -0.3320313,0.644531 -0.2539062,0.488282 -0.7421875,1.269532 -0.078125,0.742187 -0.5273437,1.855468 -0.4492187,1.09375 -1.2500002,2.578125 -0.09766,0.136719 -0.117188,0.234375 0,0.09766 0,0.214844 0,0.136719 0.05859,0.214844 0.07813,0.05859 0.214844,0.05859 0.195312,0 0.6250005,-0.03906 0.4492184,-0.03906 0.6445309,-0.03906 z" />
    <path
       id="path3702"
       style="font-style:normal;font-variant:normal;font-weight:normal;font-stretch:normal;font-family:Mistral;-inkscape-font-specification:Mistral;fill:#eb4632;fill-opacity:1"
       d="m 19.450577,82.17876 q 0.117187,0.253906 0.253906,0.585937 0.15625,0.332031 0.351562,0.761719 0.09766,0.136719 0.136719,0.253906 0.03906,0.09766 0.03906,0.195313 -1.171875,0.546875 -2.460938,0.996093 -1.289062,0.449219 -2.714844,0.839844 -0.371093,0.09766 -0.898437,0.214844 -0.507813,0.09766 -1.171875,0.273437 -0.527344,0.195313 -1.308593,0.46875 -0.761719,0.253907 -1.7773431,0.527344 -0.6445313,0.175781 -1.3085938,0.332031 -0.6445312,0.15625 -1.2890625,0.292969 -0.8007812,0.195313 -1.484375,0.292969 -0.6640625,0.09766 -1.1328125,0.09766 -1.2304687,0 -1.8359375,-0.46875 -0.625,-0.46875 -0.625,-1.40625 0,-0.957031 0.3515625,-1.816406 0.3320313,-0.878906 1.0351563,-1.660156 0.1953125,-0.3125 0.5078125,-0.703125 0.3320312,-0.390625 0.7617187,-0.878907 0.2929688,-0.234375 0.7617188,-0.722656 0.46875,-0.507812 1.1328125,-1.386719 0.4492187,-0.546875 0.9179687,-1.152343 0.4882813,-0.605469 0.9375,-1.191407 Q 8.8451064,76.65142 9.1576064,76.202201 9.4896376,75.752982 9.8997939,75.167045 10.1537,74.93267 10.4662,74.581107 q 0.332031,-0.351562 0.722656,-0.839843 0.546874,-0.703125 1.152343,-1.601563 0.625,-0.917969 1.308593,-2.011719 1.09375,-1.679687 1.621094,-2.734375 0.546875,-1.074218 0.546875,-1.523437 0,-0.253906 -0.3125,-0.507813 -0.3125,-0.273437 -0.957031,-0.546875 -0.546875,-0.234375 -0.976563,-0.351562 -0.410156,-0.136719 -0.703125,-0.15625 l -1.484371,-0.0586 q -0.253906,-0.07812 -0.527343,-0.156248 -0.273437,-0.09766 -0.605469,-0.175781 l -0.9570309,0.3125 Q 8.9232344,64.112353 8.6107344,64.05376 8.3177656,63.995166 8.0247969,63.995166 6.8529219,64.073291 5.8568281,64.190478 L 5.3294844,63.995166 q -0.097656,-0.07813 -0.15625,-0.292969 -0.039063,-0.234375 -0.1367188,-0.605469 0.1367188,-0.253906 0.3515625,-0.644531 0.2148438,-0.410156 0.46875,-0.917969 0.078125,-0.273437 0.097656,-0.410156 0.234375,-0.683594 0.78125,-1.035156 0.5664062,-0.371094 1.5234375,-0.371094 0.46875,0 0.8398437,0.03906 0.390625,0.03906 0.703125,0.07813 l 0.2734377,0.214843 q 0.390625,-0.09766 0.644531,-0.175781 0.253906,-0.09766 0.390625,-0.09766 1.11328,0.214844 2.324218,0.449219 0.332031,0.01953 0.820312,0.09766 0.488281,0.05859 1.113281,0.175781 0.273438,0.175781 0.683594,0.371094 0.429688,0.195312 0.996094,0.449219 0.742187,0.273437 1.308594,0.761718 0.566406,0.46875 0.898437,1.054688 0.3125,0.507812 0.449219,0.976562 0.136719,0.449219 0.136719,0.859375 0,0.644532 -0.15625,1.191407 -0.15625,0.546875 -0.46875,0.996093 l -0.253907,0.761719 q -0.03906,0.15625 -0.195312,0.429688 -0.136719,0.273437 -0.351563,0.546875 -0.332031,0.449218 -0.722656,0.917968 -0.09766,0.234375 -0.351562,0.546875 -0.253907,0.292969 -0.644532,0.625 -0.07813,0.03906 -0.195312,0.175782 -0.09766,0.136718 -0.195313,0.332031 -0.214843,0.449219 -0.664062,1.054687 -0.449219,0.605469 -1.113281,1.40625 -0.878907,1.015625 -1.386719,1.640625 -0.488281,0.605469 -0.683594,0.859375 -0.234375,0.195313 -0.46875,0.410157 -0.234375,0.214843 -0.507812,0.507812 l -0.253906,0.585936 q -0.09766,0.253906 -0.683593,1.015625 -0.5859374,0.742187 -1.6406249,2.011718 -1.0351562,1.171875 -1.5234375,1.914063 -0.4882812,0.742187 -0.4882812,1.015625 0,0.136719 0.15625,0.195312 l 0.7617187,-0.136718 q 0.2734375,0.05859 0.5273438,0.09766 0.4882812,-0.07813 0.9765625,-0.09766 l 0.6835937,0.195312 q 0.5468749,-0.175781 0.9570309,-0.234375 0.429687,-0.07813 0.722656,-0.07813 0.996093,0 1.855468,-0.136719 0.859375,-0.136718 1.582031,-0.429687 0.390625,-0.03906 0.976563,-0.15625 0.585937,-0.136719 1.347656,-0.332031 0.214844,-0.09766 0.449219,-0.175782 0.234375,-0.07813 0.488281,-0.195312 0.3125,-0.05859 0.585937,-0.117188 0.292969,-0.05859 0.488282,-0.136718 z" />
    <path
       id="path3704"
       style="font-style:normal;font-variant:normal;font-weight:normal;font-stretch:normal;font-family:Mistral;-inkscape-font-specification:Mistral;fill:#eb4632;fill-opacity:1"
       d="m 33.554235,60.381885 q 0.429687,0 0.625,0.273437 0.195312,0.273438 0.195312,0.800781 0,0.996094 -0.09766,1.855469 -0.07813,0.859375 -0.292969,1.523438 -0.292968,0.839843 -0.566406,1.660156 -0.253906,0.800781 -0.527344,1.640625 -0.292968,0.332031 -0.390625,0.507812 -0.03906,0.410157 -0.09766,0.800782 -0.01953,0.15625 -0.15625,0.292968 -0.117187,0.136719 -0.3125,0.3125 -0.05859,0.195313 -0.15625,0.46875 -0.09766,0.253907 -0.234375,0.605469 -0.507812,0.996094 -1.367187,2.382813 -0.839844,1.367187 -2.050782,3.164062 -0.01953,0.3125 -0.01953,0.585938 l -1.09375,2.34375 q -0.566406,1.269531 -0.996094,2.441406 -0.410156,1.152344 -0.625,2.207031 -0.117187,0.585938 -0.195312,0.976563 -0.05859,0.371093 -0.05859,0.527343 0,0.195313 0.234375,0.605469 0.234375,0.390625 0.234375,0.488281 0,0.429688 -1.152344,1.113282 -1.132812,0.683593 -1.40625,0.664062 -0.292968,-0.05859 -0.625,-0.117187 -0.3125,-0.03906 -0.585937,-0.09766 -0.410156,-0.09766 -0.625,-0.273437 -0.214844,-0.15625 -0.214844,-0.410156 0,-0.195313 0.136719,-0.761719 0.175781,-0.859375 0.429687,-1.5625 0.273438,-0.722656 0.664063,-1.328125 l 0.05859,-0.07813 q -0.05859,-0.07813 -0.09766,-0.195313 -0.01953,-0.117187 -0.07813,-0.253906 0.09766,-0.351562 0.273438,-0.859375 0.175781,-0.507812 0.46875,-1.171875 0.195312,-0.3125 0.390625,-0.820312 0.195312,-0.527344 0.351562,-1.191407 -0.683593,-0.566406 -1.132812,-1.191406 -0.449219,-0.625 -0.625,-1.308594 -0.15625,-0.332031 -0.410156,-0.839843 -0.253907,-0.527344 -0.546875,-1.25 l -1.445313,-4.980469 q -0.05859,-0.585938 -0.175781,-1.386719 -0.09766,-0.820312 -0.332031,-1.855469 l 0.175781,-0.449218 -0.332031,-0.429688 q 0,-0.15625 -0.03906,-0.429687 -0.01953,-0.292969 -0.07813,-0.703125 -0.05859,-0.390625 -0.07813,-0.664063 0,-0.292969 0,-0.488281 0,-0.722656 0.214844,-1.113281 0.214844,-0.390625 0.644531,-0.488282 0.136719,0 0.292969,0 0.175781,-0.01953 0.371094,-0.01953 0.234375,0 1.425781,-0.625 0.546875,0 0.878906,0.292969 0.332031,0.273437 0.449219,0.800781 0.05859,0.273438 0.07813,0.78125 0.01953,0.488281 0.01953,1.171875 0,0.371094 -0.07813,1.074219 -0.05859,0.703125 -0.05859,1.035156 0,0.117188 0.01953,0.273438 0.03906,0.136718 0.07813,0.390625 0.01953,0.644531 0.136718,1.582031 0.136719,0.917969 0.332032,2.109375 0.117187,0.703125 0.351562,1.757812 0.234375,1.035157 0.546875,2.421875 0.15625,0.195313 0.3125,0.46875 0.175781,0.253907 0.332031,0.585938 l 0.136719,0.07813 q 0.117188,0 0.566406,-0.878906 0.46875,-0.898438 1.269532,-2.675782 0.117187,-0.234375 0.273437,-0.605468 0.15625,-0.390625 0.371094,-0.898438 0.09766,-0.117187 0.214844,-0.3125 0.117187,-0.195312 0.273437,-0.46875 0.09766,-0.332031 0.292969,-0.839844 0.195312,-0.527343 0.488281,-1.230468 0.253906,-0.449219 0.566406,-1.09375 0.332032,-0.664063 0.722657,-1.5625 0.01953,-0.117188 0.722656,-1.269532 0.722656,-1.171875 2.070312,-3.339843 0.15625,-0.253907 0.332032,-0.390625 0.175781,-0.15625 0.332031,-0.15625 z" />
    <path
       id="path3706"
       style="font-style:normal;font-variant:normal;font-weight:normal;font-stretch:normal;font-family:Mistral;-inkscape-font-specification:Mistral;fill:#eb4632;fill-opacity:1"
       d="m 37.974919,77.619261 q 0.546875,0.136718 0.917969,0.292968 0.664063,-0.117187 1.347656,-0.253906 h 3.632813 q 0.527344,0 0.761719,0.273438 0.234375,0.273437 0.234375,0.820312 0,0.78125 -0.332032,1.171875 -0.3125,0.390625 -0.917968,0.390625 -0.195313,0 -0.605469,-0.05859 -0.410156,-0.05859 -0.605469,-0.05859 h -1.113281 q -0.703125,0.136718 -1.40625,0.253906 -1.699219,-0.273438 -1.894531,-0.273438 -0.253907,0 -0.683594,0.07813 -0.410156,0.05859 -0.664063,0.05859 -0.351562,0 -0.566406,-0.136719 -0.214844,-0.15625 -0.214844,-0.429687 0,-0.117188 0.195313,-0.332031 0.195312,-0.234375 0.566406,-0.566407 0.07813,-0.15625 0.195313,-0.390625 0.136718,-0.253906 0.3125,-0.585937 0.136718,-0.01953 0.332031,-0.07813 0.214844,-0.07813 0.507812,-0.175781 z" />
    <path
       id="path3708"
       style="font-style:normal;font-variant:normal;font-weight:normal;font-stretch:normal;font-family:Mistral;-inkscape-font-specification:Mistral;fill:#eb4632;fill-opacity:1"
       d="m 61.364639,82.17876 0.742188,1.796875 q -0.214844,0.195312 -0.527344,0.429687 -0.292969,0.214844 -0.703125,0.46875 -0.410156,0.136719 -0.996094,0.390625 -0.566406,0.253906 -1.308594,0.585938 -0.566406,0.351562 -0.9375,0.527343 -0.351562,0.175782 -0.488281,0.175782 -0.253906,0 -0.9375,0.214843 -0.664062,0.214844 -1.757812,0.644532 -0.585938,0.214843 -1.25,0.449218 -0.644532,0.214844 -1.347657,0.390625 l -1.210937,-0.253906 -0.742188,0.332031 q -0.371093,0 -0.761718,-0.01953 -0.371094,0 -0.722657,-0.03906 -0.566406,-0.01953 -0.859375,-0.15625 -0.273437,-0.136719 -0.273437,-0.390625 l 0.117187,-0.742188 -0.117187,-0.136719 q -0.664063,0 -0.898438,-0.175781 -0.214843,-0.175781 -0.214843,-0.820312 0,-0.292969 0.01953,-0.976563 0.03906,-0.683594 0.09766,-1.777344 0,-0.09766 0.117188,-0.410156 0.136718,-0.3125 0.136718,-0.449219 -0.09766,-0.195312 -0.117187,-0.3125 -0.01953,-0.117187 -0.01953,-0.214843 0.03906,-0.761719 0.15625,-1.875 0.136718,-1.113282 0.332031,-2.636719 0.234375,-0.917969 0.390625,-2.070313 -0.03906,-0.859375 -0.07813,-1.757812 0.722656,-3.242188 1.484375,-6.523438 0.117187,-0.585937 0.429687,-1.113281 0.332032,-0.527344 0.78125,-1.015625 0.195313,-0.136719 0.253907,-0.214844 0.09766,-0.175781 0.253906,-0.429687 0.15625,-0.273438 0.371094,-0.605469 0.117187,-0.07813 0.371093,-0.234375 0.273438,-0.15625 0.722657,-0.429687 0.195312,-0.15625 0.449218,-0.371094 0.253907,-0.214844 0.585938,-0.507813 0.742187,-0.449218 1.367187,-0.9375 0.644532,-0.507812 1.601563,-0.625 0.449219,-0.01953 0.898437,-0.03906 0.449219,-0.03906 0.859375,-0.07813 0.390625,-0.07813 0.683594,-0.09766 0.195313,-0.03906 0.332031,-0.07813 0.15625,-0.03906 0.273438,-0.03906 0.117187,0 0.3125,0.03906 0.214844,0.01953 0.566406,0.07813 0.273438,0.01953 0.46875,0.01953 0.195313,0 0.371094,-0.01953 0.78125,0.234375 1.152344,0.683593 0.371093,0.449219 0.371093,1.074219 0,1.347656 -0.273437,2.011719 -0.253906,0.644531 -0.820313,0.644531 -0.429687,0 -0.976562,-0.429687 -0.546875,-0.449219 -2.949219,-0.449219 -0.996094,0.195312 -1.972656,0.390625 -0.09766,0.15625 -0.234375,0.234375 -0.117188,0.07813 -0.214844,0.117187 l -0.683594,-0.253906 q -0.3125,0.117188 -0.703125,0.644531 -0.390625,0.527344 -0.820312,1.445313 -0.09766,0.195312 -0.15625,0.488281 -0.03906,0.292969 -0.03906,0.683594 -0.351562,1.40625 -0.703125,2.714844 -0.332031,1.40625 -0.546875,2.128906 -0.195312,0.722656 -0.234375,0.878906 -0.05859,0.195313 -0.09766,0.371094 -0.03906,0.175781 -0.03906,0.351562 0,0.253907 0.09766,0.390625 0.09766,0.136719 0.292969,0.136719 0.175781,0 0.839843,-0.644531 0.683594,-0.644531 1.015625,-0.722656 0.410157,-0.117188 0.820313,-0.253907 0.429687,-0.136718 0.878906,-0.332031 0.175781,-0.05859 0.917969,-0.15625 0.761719,-0.09766 2.109375,-0.234375 l 0.546875,0.15625 1.035156,-0.195312 0.546875,0.253906 q 0.195313,0.195312 0.351563,0.488281 0.175781,0.273438 0.3125,0.605469 0,1.171875 -0.253907,1.777344 -0.253906,0.605468 -0.761718,0.605468 l -1.074219,-0.429687 q -1.328125,0.136719 -2.636719,0.273437 -1.289062,0.117188 -2.636719,0.234375 -1.640625,0.332032 -2.519531,1.074219 -0.878906,0.742188 -0.976562,1.953125 -0.01953,0.253906 -0.136719,0.78125 -0.117188,0.527344 -0.273438,1.308594 l 0.136719,0.585937 q -0.175781,0.839844 -0.273437,1.582032 -0.09766,0.742187 -0.09766,1.328125 0,0.195312 0.05859,0.292968 0.05859,0.07813 0.136719,0.03906 0.9375,-0.07813 1.503906,-0.117188 0.566406,-0.03906 0.800781,-0.01953 0.507813,0.03906 1.035157,0.07813 l 1.230468,-0.09766 q 0.195313,-0.03906 0.839844,-0.3125 0.664063,-0.273438 1.191406,-0.273438 0.566407,0 1.132813,-0.117187 0.585937,-0.117188 1.113281,-0.3125 0.527344,-0.195313 1.035156,-0.390625 0.527344,-0.214844 1.054688,-0.410156 0.195312,-0.05859 0.507812,-0.214844 0.332032,-0.15625 0.761719,-0.410156 z" />
  </g>
</svg>
